<svg xmlns="http://www.w3.org/2000/svg" viewBox="0 0 100 202" color-rendering="optimizeQuality" shape-rendering="geometricPrecision">
  <title>SORA</title>
  <desc>SORA | Technical BIM Integration isotipo</desc>
  <!--
    Monochrome silhouette of the SORA isotipo (S/F lettermark).
    Safari reads this as a mask; fill color is set via theme-color in HTML.
    Path approximates the fluid S-curve form of the brand mark.
  -->
  <path fill="#000000" d="
    M 30,0
    C 10,0 0,12 0,28
    C 0,44 10,56 30,62
    L 62,72
    C 74,76 80,84 80,94
    C 80,106 72,114 58,114
    L 20,114
    C 10,114 4,120 4,130
    C 4,140 10,146 20,146
    L 62,146
    C 82,146 100,132 100,110
    C 100,90 88,76 68,70
    L 36,60
    C 24,56 18,48 18,38
    C 18,28 26,20 38,20
    L 58,20
    C 62,20 64,24 64,28
    L 64,80
    C 64,92 72,100 84,100
    C 96,100 100,92 100,80
    L 100,28
    C 100,12 90,0 70,0
    Z
  "/>
</svg>